<?xml version="1.0" encoding="UTF-8" standalone="no"?>
<svg
   xmlns:dc="http://purl.org/dc/elements/1.1/"
   xmlns:cc="http://creativecommons.org/ns#"
   xmlns:rdf="http://www.w3.org/1999/02/22-rdf-syntax-ns#"
   xmlns:svg="http://www.w3.org/2000/svg"
   xmlns="http://www.w3.org/2000/svg"
   xmlns:sodipodi="http://sodipodi.sourceforge.net/DTD/sodipodi-0.dtd"
   xmlns:inkscape="http://www.inkscape.org/namespaces/inkscape"
   version="1.1"
   width="24"
   height="24"
   viewBox="0 0 24 24"
   id="svg4"
   sodipodi:docname="download.svg"
   inkscape:version="0.92.3 (2405546, 2018-03-11)">
  <metadata
     id="metadata10">
    <rdf:RDF>
      <cc:Work
         rdf:about="">
        <dc:format>image/svg+xml</dc:format>
        <dc:type
           rdf:resource="http://purl.org/dc/dcmitype/StillImage" />
      </cc:Work>
    </rdf:RDF>
  </metadata>
  <defs
     id="defs8" />
  <sodipodi:namedview
     pagecolor="#ffffff"
     bordercolor="#666666"
     borderopacity="1"
     objecttolerance="10"
     gridtolerance="10"
     guidetolerance="10"
     inkscape:pageopacity="0"
     inkscape:pageshadow="2"
     inkscape:window-width="1920"
     inkscape:window-height="1001"
     id="namedview6"
     showgrid="false"
     inkscape:zoom="9.8333333"
     inkscape:cx="12"
     inkscape:cy="12"
     inkscape:window-x="-9"
     inkscape:window-y="-9"
     inkscape:window-maximized="1"
     inkscape:current-layer="svg4" />
  <path
     fill="#212121"
     d="M5,20H19V18H5M19,9H15V3H9V9H5L12,16L19,9Z"
     id="path2" />
  <path
     style="opacity:0;fill:#303f9f;fill-opacity:1;stroke-width:0.01016949;stroke-miterlimit:4;stroke-dasharray:none"
     d="M 8.5525464,12.467801 5.0960369,9.0101695 h 1.9570663 1.9570663 v -3 -3 h 2.9491525 2.949153 v 2.9978502 2.9978501 l 1.983751,0.027574 1.983753,0.027574 -3.433462,3.4322072 -3.433461,3.432208 z"
     id="path851"
     inkscape:connector-curvature="0" />
  <path
     style="opacity:0;fill:#303f9f;fill-opacity:1;stroke-width:0.01016949;stroke-miterlimit:4;stroke-dasharray:none"
     d="M 8.5525464,12.467801 5.0960369,9.0101695 h 1.9570663 1.9570663 v -3 -3 h 2.9491525 2.949153 v 2.9978502 2.9978501 l 1.983751,0.027574 1.983753,0.027574 -3.433462,3.4322072 -3.433461,3.432208 z"
     id="path853"
     inkscape:connector-curvature="0" />
  <path
     style="opacity:0;fill:#303f9f;fill-opacity:1;stroke-width:0.01016949;stroke-miterlimit:4;stroke-dasharray:none"
     d="M 8.5525464,12.467801 5.0960369,9.0101695 h 1.9570663 1.9570663 v -3 -3 h 2.9491525 2.949153 v 2.9978502 2.9978501 l 1.983751,0.027574 1.983753,0.027574 -3.433462,3.4322072 -3.433461,3.432208 z"
     id="path855"
     inkscape:connector-curvature="0" />
  <path
     style="opacity:0;fill:#303f9f;fill-opacity:1;stroke-width:0.01016949;stroke-miterlimit:4;stroke-dasharray:none"
     d="m 5.0440678,19.027119 v -0.966102 h 6.9661012 6.966102 v 0.966102 0.966101 H 12.010169 5.0440678 Z"
     id="path857"
     inkscape:connector-curvature="0" />
  <path
     style="opacity:0;fill:#303f9f;fill-opacity:1;stroke-width:0.01016949;stroke-miterlimit:4;stroke-dasharray:none"
     d="m 5.0440678,19.027119 v -0.966102 h 6.9661012 6.966102 v 0.966102 0.966101 H 12.010169 5.0440678 Z"
     id="path859"
     inkscape:connector-curvature="0" />
  <path
     style="opacity:0;fill:#303f9f;fill-opacity:1;stroke-width:0.01016949;stroke-miterlimit:4;stroke-dasharray:none"
     d="M 8.5525464,12.467801 5.0960369,9.0101695 h 1.9570663 1.9570663 v -3 -3 h 2.9491525 2.949153 v 2.9978502 2.9978501 l 1.983751,0.027574 1.983753,0.027574 -3.433462,3.4322072 -3.433461,3.432208 z"
     id="path861"
     inkscape:connector-curvature="0" />
  <path
     style="opacity:0;fill:#303f9f;fill-opacity:1;stroke-width:0.01016949;stroke-miterlimit:4;stroke-dasharray:none"
     d="M 8.5525464,12.467801 5.0960369,9.0101695 h 1.9570663 1.9570663 v -3 -3 h 2.9491525 2.949153 v 2.9978502 2.9978501 l 1.983751,0.027574 1.983753,0.027574 -3.433462,3.4322072 -3.433461,3.432208 z"
     id="path863"
     inkscape:connector-curvature="0" />
  <path
     style="opacity:0;fill:#303f9f;fill-opacity:1;stroke-width:0.01016949;stroke-miterlimit:4;stroke-dasharray:none"
     d="M 8.5525464,12.467801 5.0960369,9.0101695 h 1.9570663 1.9570663 v -3 -3 h 2.9491525 2.949153 v 2.9978502 2.9978501 l 1.983751,0.027574 1.983753,0.027574 -3.433462,3.4322072 -3.433461,3.432208 z"
     id="path865"
     inkscape:connector-curvature="0" />
  <path
     style="opacity:1;fill:#303f9f;fill-opacity:1;stroke-width:0.01016949;stroke-miterlimit:4;stroke-dasharray:none"
     d="M 8.5525464,12.467801 5.0960369,9.0101695 h 1.9570663 1.9570663 v -3 -3 h 2.9491525 2.949153 v 2.9978502 2.9978501 l 1.983751,0.027574 1.983753,0.027574 -3.433462,3.4322072 -3.433461,3.432208 z"
     id="path867"
     inkscape:connector-curvature="0" />
  <path
     style="opacity:1;fill:#303f9f;fill-opacity:1;stroke-width:0.01016949;stroke-miterlimit:4;stroke-dasharray:none"
     d="m 5.0440678,19.027119 v -0.966102 h 6.9661012 6.966102 v 0.966102 0.966101 H 12.010169 5.0440678 Z"
     id="path869"
     inkscape:connector-curvature="0" />
</svg>
