<?xml version="1.0" encoding="UTF-8" standalone="no"?>
<svg
   xmlns:dc="http://purl.org/dc/elements/1.1/"
   xmlns:cc="http://creativecommons.org/ns#"
   xmlns:rdf="http://www.w3.org/1999/02/22-rdf-syntax-ns#"
   xmlns:svg="http://www.w3.org/2000/svg"
   xmlns="http://www.w3.org/2000/svg"
   xmlns:sodipodi="http://sodipodi.sourceforge.net/DTD/sodipodi-0.dtd"
   xmlns:inkscape="http://www.inkscape.org/namespaces/inkscape"
   version="1.1"
   width="24"
   height="24"
   viewBox="0 0 24 24"
   id="svg4"
   sodipodi:docname="newFolder.svg"
   inkscape:version="0.92.3 (2405546, 2018-03-11)">
  <metadata
     id="metadata10">
    <rdf:RDF>
      <cc:Work
         rdf:about="">
        <dc:format>image/svg+xml</dc:format>
        <dc:type
           rdf:resource="http://purl.org/dc/dcmitype/StillImage" />
      </cc:Work>
    </rdf:RDF>
  </metadata>
  <defs
     id="defs8" />
  <sodipodi:namedview
     pagecolor="#ffffff"
     bordercolor="#666666"
     borderopacity="1"
     objecttolerance="10"
     gridtolerance="10"
     guidetolerance="10"
     inkscape:pageopacity="0"
     inkscape:pageshadow="2"
     inkscape:window-width="1920"
     inkscape:window-height="1001"
     id="namedview6"
     showgrid="false"
     inkscape:zoom="9.8333333"
     inkscape:cx="12"
     inkscape:cy="12"
     inkscape:window-x="-9"
     inkscape:window-y="-9"
     inkscape:window-maximized="1"
     inkscape:current-layer="svg4" />
  <path
     fill="#FFFFFF"
     d="M20,6H12L10,4H4C2.89,4 2,4.89 2,6V18C2,19.11 2.89,20 4,20H20C21.11,20 22,19.11 22,18V8C22,6.89 21.11,6 20,6M20,18H4V6H9.17L11.17,8H20V18M12,14H14V16H16V14H18V12H16V10H14V12H12V14Z"
     id="path2"
     style="fill:#ffffff;fill-opacity:1" />
  <path
     style="fill:#21ff00;fill-opacity:0;stroke-width:0.10169491"
     d="M 4.0271186,12.010169 V 6.0610169 h 2.5698051 2.5698052 l 0.9620851,0.9661017 0.962084,0.9661017 h 4.451161 4.451161 v 4.9830507 4.983051 H 12.010169 4.0271186 Z m 12.0000004,3 V 13.99322 h 1.016949 1.016949 V 12.976271 11.959322 H 17.044068 16.027119 V 10.942373 9.9254237 h -1.01695 -1.016949 v 1.0169493 1.016949 h -1.016949 -1.016949 v 1.016949 1.016949 h 1.016949 1.016949 v 1.016949 1.01695 h 1.016949 1.01695 z"
     id="path817"
     inkscape:connector-curvature="0" />
  <path
     style="fill:#212120;fill-opacity:0;stroke-width:0.10169491"
     d="M 3.5026412,19.894099 C 2.6950307,19.65012 2.1474147,18.986436 2.0437983,18.126053 2.0091788,17.838588 1.9950769,14.880508 2.0124608,11.552542 l 0.031607,-6.0508471 0.2308225,-0.43209 C 2.4018427,4.8319555 2.6958551,4.5116165 2.9282512,4.3577405 l 0.4225383,-0.2797744 3.3127408,-0.029418 3.3127409,-0.029418 1.0150408,1.0209437 1.015042,1.0209438 h 4.200089 c 3.549641,0 4.258066,0.024224 4.574457,0.1564209 0.483082,0.2018442 0.714098,0.4158597 0.951955,0.8819007 0.181936,0.3564707 0.192569,0.6809388 0.192569,5.8761478 0,4.388355 -0.02775,5.56525 -0.137394,5.827674 -0.181608,0.434648 -0.780145,0.949512 -1.258132,1.082251 -0.458521,0.127332 -16.6072495,0.135572 -17.0272568,0.0087 z M 19.99322,13.027119 V 7.9932203 H 15.593007 11.192794 L 10.179661,6.9762712 9.1665278,5.959322 H 6.5459758 3.9254237 v 5.983051 c 0,3.290678 0.030508,6.01356 0.067797,6.050847 0.037288,0.03729 3.6525423,0.0678 8.0338983,0.0678 h 7.966101 z"
     id="path825"
     inkscape:connector-curvature="0" />
  <path
     style="fill:#ffffff;fill-opacity:0;stroke-width:0.10169491"
     d="M 4.0271186,12.010169 V 6.0610169 h 2.5698051 2.5698052 l 0.9620851,0.9661017 0.962084,0.9661017 h 4.451161 4.451161 v 4.9830507 4.983051 H 12.010169 4.0271186 Z m 12.0000004,3 V 13.99322 h 1.016949 1.016949 V 12.976271 11.959322 H 17.044068 16.027119 V 10.942373 9.9254237 h -1.01695 -1.016949 v 1.0169493 1.016949 h -1.016949 -1.016949 v 1.016949 1.016949 h 1.016949 1.016949 v 1.016949 1.01695 h 1.016949 1.01695 z"
     id="path827"
     inkscape:connector-curvature="0" />
</svg>
